<svg width="86" height="70" viewBox="0 0 86 70" fill="none" xmlns="http://www.w3.org/2000/svg">
<path fill-rule="evenodd" clip-rule="evenodd" d="M68.8631 60.3853C69.1073 60.6224 69.302 60.9056 69.4358 61.2186C69.5696 61.5315 69.6399 61.868 69.6426 62.2083C69.6452 62.5487 69.5802 62.8862 69.4513 63.2012C69.3224 63.5162 69.1322 63.8024 68.8917 64.0433C68.6512 64.2841 68.3652 64.4747 68.0504 64.6041C67.7356 64.7335 67.3982 64.799 67.0578 64.7968C66.7175 64.7946 66.3809 64.7248 66.0678 64.5914C65.7546 64.458 65.4711 64.2638 65.2337 64.0199L52.1025 50.8835L38.9669 64.0199C38.7295 64.2638 38.446 64.458 38.1329 64.5914C37.8197 64.7248 37.4832 64.7946 37.1429 64.7968C36.8025 64.799 36.4651 64.7335 36.1503 64.6041C35.8355 64.4747 35.5495 64.2841 35.309 64.0433C35.0685 63.8024 34.8783 63.5162 34.7493 63.2012C34.6204 62.8862 34.5554 62.5487 34.5581 62.2083C34.5607 61.868 34.631 61.5315 34.7649 61.2186C34.8987 60.9056 35.0934 60.6224 35.3376 60.3853L46.563 49.1643H57.642L68.8631 60.3853ZM9.89511 28.4465C11.1482 28.447 12.3733 28.0759 13.4154 27.3802C14.4576 26.6844 15.27 25.6952 15.75 24.5377C16.2299 23.3802 16.3559 22.1064 16.1118 20.8773C15.8678 19.6482 15.2648 18.5191 14.3791 17.6327C13.4933 16.7464 12.3646 16.1426 11.1357 15.8977C9.90677 15.6529 8.63284 15.7779 7.47501 16.2571C6.31717 16.7363 5.32744 17.5481 4.63097 18.5898C3.9345 19.6314 3.56258 20.8563 3.56224 22.1093C3.56269 23.7892 4.22992 25.4001 5.41734 26.5884C6.60476 27.7766 8.21527 28.4449 9.89511 28.4465ZM33.6434 40.1967L46.7402 36.3712C47.0474 36.2822 47.3066 36.0748 47.4609 35.7947C47.6151 35.5146 47.6518 35.1846 47.5628 34.8775C47.4738 34.5703 47.2664 34.3111 46.9863 34.1568C46.7062 34.0026 46.3762 33.9659 46.0691 34.0549L33.3852 37.7574C33.0003 37.0996 32.3724 36.6194 31.6368 36.4202L16.5937 32.3925H3.03135C2.22825 32.3939 1.4584 32.7133 0.890278 33.281C0.322159 33.8486 0.00204698 34.6182 0 35.4213L0 48.6549C0.00250202 49.4576 0.322843 50.2267 0.890936 50.7938C1.45903 51.3609 2.22862 51.68 3.03135 51.6811H5.52663V67.0908C5.52845 67.7376 5.78642 68.3573 6.24408 68.8143C6.70174 69.2713 7.32181 69.5284 7.96858 69.5293H14.1543C14.8006 69.5277 15.42 69.2703 15.8771 68.8134C16.3342 68.3564 16.5919 67.7371 16.5937 67.0908V38.438L30.1267 42.063C30.8395 42.2517 31.5972 42.1643 32.2483 41.8182C32.8994 41.4722 33.3958 40.8931 33.6382 40.1967H33.6434ZM83.4777 0.0742188H20.7229C20.0498 0.0865393 19.4084 0.362601 18.9367 0.843015C18.465 1.32343 18.2007 1.9698 18.2007 2.64307C18.2007 3.31635 18.465 3.96272 18.9367 4.44314C19.4084 4.92355 20.0498 5.19961 20.7229 5.21193H83.4777C84.1509 5.19961 84.7923 4.92355 85.264 4.44314C85.7357 3.96272 86 3.31635 86 2.64307C86 1.9698 85.7357 1.32343 85.264 0.843015C84.7923 0.362601 84.1509 0.0865393 83.4777 0.0742188ZM75.1564 24.436C74.9481 23.5972 74.6252 22.7912 74.197 22.0405C74.1836 22.0222 74.1721 22.0026 74.1626 21.982C73.717 21.2112 73.1668 20.5058 72.5277 19.886C72.1559 19.5266 71.7563 19.1972 71.3326 18.9007L71.0882 19.2828L66.4599 26.4245L75.4085 25.9633C75.3655 25.4482 75.2812 24.9375 75.1564 24.436ZM60.1304 37.9536C62.4447 38.5766 64.9084 38.3103 67.036 37.2071C69.1636 36.1038 70.8009 34.2437 71.6251 31.9933L57.7943 32.7083C57.5396 32.72 57.2877 32.6513 57.0741 32.5121C56.8068 32.3379 56.6195 32.0647 56.5534 31.7526C56.4873 31.4404 56.5477 31.1148 56.7214 30.8472L64.2545 19.2277C62.0411 18.8435 59.7631 19.2491 57.8184 20.3738H57.8133C56.1694 21.3232 54.8439 22.7388 54.0045 24.4414C53.1652 26.1441 52.8495 28.0575 53.0975 29.9395C53.3456 31.8216 54.1461 33.5879 55.398 35.015C56.6498 36.4421 58.2967 37.4659 60.1304 37.957V37.9536ZM22.4808 7.6315H81.725V44.4138C81.7234 45.0316 81.4772 45.6237 81.0402 46.0606C80.6032 46.4974 80.0111 46.7434 79.3932 46.7447H24.8075C24.191 46.7413 23.6009 46.4944 23.1657 46.0578C22.7306 45.6212 22.4856 45.0302 22.4843 44.4138V42.5208L29.5029 44.4017C30.576 44.6839 31.7101 44.6268 32.7493 44.2382C33.7886 43.8496 34.6819 43.1486 35.3066 42.2317L47.4105 38.6927C47.8674 38.5596 48.2937 38.3378 48.6649 38.0399C49.0362 37.7421 49.3451 37.374 49.5741 36.9568C49.8031 36.5396 49.9476 36.0813 49.9995 35.6082C50.0514 35.1351 50.0096 34.6564 49.8765 34.1994C49.7434 33.7425 49.5216 33.3162 49.2238 32.945C48.9259 32.5738 48.5579 32.2648 48.1406 32.0358C47.7234 31.8069 47.2651 31.6623 46.792 31.6104C46.3189 31.5585 45.8402 31.6003 45.3833 31.7334L34.1373 35.0194C33.581 34.5851 32.9431 34.2671 32.2615 34.0841L22.4808 31.4641V7.6315ZM69.9541 16.6042L63.1764 27.0578C63.0228 27.2761 62.9471 27.5398 62.9613 27.8063C62.978 28.1254 63.1202 28.4249 63.3568 28.6396C63.5934 28.8543 63.9053 28.9667 64.2244 28.9525L76.7095 28.3063C77.0112 28.2908 77.2962 28.1628 77.5084 27.9477C77.7205 27.7325 77.8444 27.4457 77.8556 27.1438C77.923 24.9384 77.3805 22.7571 76.2879 20.8402C76.2732 20.8161 76.2638 20.7963 76.2491 20.7722C75.6943 19.8102 75.0086 18.9299 74.2116 18.1565C73.4266 17.3932 72.5396 16.7422 71.5761 16.2222C71.3086 16.0646 70.9906 16.0163 70.6884 16.0875C70.3862 16.1587 70.1232 16.3438 69.9541 16.6042ZM52.2152 34.6916C53.4384 36.8142 55.2817 38.5118 57.4977 39.5563C59.7137 40.6008 62.1962 40.9423 64.6119 40.535C67.0276 40.1276 69.2609 38.9909 71.0118 37.2775C72.7627 35.564 73.9474 33.3559 74.4069 30.9495C74.4305 30.8487 74.439 30.7449 74.4319 30.6415C74.4156 30.3225 74.2733 30.023 74.0363 29.8089C73.7993 29.5948 73.4869 29.4835 73.1679 29.4997L60.0272 30.176L67.1689 19.1623C67.2301 19.0734 67.2779 18.976 67.3108 18.8732C67.4159 18.5719 67.397 18.2411 67.2585 17.9537C67.1199 17.6662 66.8729 17.4454 66.5717 17.3399C64.2566 16.5308 61.7493 16.4498 59.3869 17.1079C57.0244 17.766 54.9201 19.1316 53.3568 21.0211C51.7934 22.9106 50.846 25.2334 50.642 27.6773C50.4379 30.1212 50.9869 32.569 52.2152 34.6916ZM44.4471 26.2033V17.5782C44.4387 17.2631 44.3076 16.9637 44.0817 16.7437C43.8558 16.5238 43.553 16.4007 43.2378 16.4007C42.9225 16.4007 42.6197 16.5238 42.3938 16.7437C42.1679 16.9637 42.0368 17.2631 42.0284 17.5782V26.2033H40.4658V20.4323C40.4658 20.1115 40.3384 19.8038 40.1115 19.5769C39.8846 19.35 39.5769 19.2225 39.2561 19.2225C38.9352 19.2225 38.6275 19.35 38.4006 19.5769C38.1737 19.8038 38.0463 20.1115 38.0463 20.4323V26.2068H36.4828V19.2879C36.4828 18.9671 36.3554 18.6594 36.1285 18.4325C35.9016 18.2056 35.5939 18.0782 35.2731 18.0782C34.9522 18.0782 34.6445 18.2056 34.4176 18.4325C34.1907 18.6594 34.0633 18.9671 34.0633 19.2879V26.2033H32.5016V22.1042C32.5016 21.7833 32.3741 21.4756 32.1472 21.2487C31.9203 21.0218 31.6126 20.8944 31.2918 20.8944C30.9709 20.8944 30.6632 21.0218 30.4363 21.2487C30.2095 21.4756 30.082 21.7833 30.082 22.1042V26.2033H29.4943C29.1735 26.2033 28.8657 26.3308 28.6389 26.5577C28.412 26.7845 28.2845 27.0923 28.2845 27.4131C28.2845 27.734 28.412 28.0417 28.6389 28.2686C28.8657 28.4954 29.1735 28.6229 29.4943 28.6229H45.0305C45.3513 28.6229 45.6591 28.4954 45.8859 28.2686C46.1128 28.0417 46.2403 27.734 46.2403 27.4131C46.2403 27.0923 46.1128 26.7845 45.8859 26.5577C45.6591 26.3308 45.3513 26.2033 45.0305 26.2033H44.4471ZM27.9421 18.6512C27.9428 18.9719 28.0704 19.2792 28.2972 19.5059C28.5239 19.7326 28.8312 19.8603 29.1519 19.861H31.2918C31.4682 19.8615 31.6425 19.8232 31.8025 19.7488C31.9625 19.6745 32.1042 19.5659 32.2176 19.4308L35.4701 16.1103L38.6391 17.9861C38.8908 18.1349 39.188 18.1872 39.4754 18.133C39.7627 18.0789 40.0206 17.9221 40.2008 17.6918L43.8405 13.7596C43.9591 13.646 44.0531 13.5093 44.117 13.358C44.1808 13.2067 44.213 13.044 44.2116 12.8798C44.2103 12.7156 44.1753 12.5534 44.109 12.4032C44.0427 12.253 43.9463 12.118 43.8259 12.0063C43.7055 11.8947 43.5635 11.8089 43.4087 11.7541C43.2539 11.6994 43.0895 11.6769 42.9257 11.688C42.7619 11.6991 42.602 11.7435 42.456 11.8186C42.31 11.8937 42.1809 11.9979 42.0766 12.1247L39.0358 15.4116L35.8857 13.5557C35.654 13.4181 35.3829 13.3621 35.1157 13.3968C34.8486 13.4314 34.6007 13.5546 34.4118 13.7467L30.7876 17.4466H29.1527C28.8328 17.447 28.526 17.5739 28.2993 17.7995C28.0725 18.0252 27.9441 18.3313 27.9421 18.6512Z" fill="#797CD0"/>
</svg>
