<svg width="78" height="70" viewBox="0 0 78 70" fill="none" xmlns="http://www.w3.org/2000/svg">
<path fill-rule="evenodd" clip-rule="evenodd" d="M45.4321 29.7703C45.5475 29.8093 45.6612 29.851 45.7748 29.9022L46.9322 30.4141C47.3461 30.1833 47.7677 29.9707 48.1955 29.7703H45.4321ZM57.0044 37.2197C63.3164 37.2197 68.4345 42.3352 68.4345 48.648C68.4345 54.9608 63.3172 60.0763 57.0044 60.0763C50.6916 60.0763 45.5753 54.9608 45.5753 48.648C45.5753 42.3352 50.6925 37.2197 57.0044 37.2197ZM60.8324 30.8236C63.0257 31.2912 65.0724 32.1554 66.8953 33.3362L69.283 32.2795C69.722 32.0834 70.2643 32.2152 70.6608 32.6126L73.0381 34.989C73.4346 35.3855 73.5647 35.9269 73.3721 36.3677L72.3128 38.7545C73.4936 40.5774 74.3569 42.6258 74.8254 44.8166L77.2599 45.7553C77.7102 45.9289 78 46.4052 78 46.9665V50.3294C78 50.8891 77.7102 51.3654 77.2599 51.5389L74.828 52.4777C74.3586 54.6702 73.4945 56.7186 72.3136 58.5406L73.373 60.9274C73.5665 61.3691 73.4354 61.9087 73.0389 62.3052L70.6617 64.6834C70.2652 65.0781 69.7229 65.2109 69.2839 65.0165L66.8962 63.9589C65.0724 65.138 63.0266 66.0022 60.8341 66.4715L59.8945 68.9043C59.721 69.3546 59.2455 69.6453 58.6842 69.6453H55.3221C54.7616 69.6453 54.2853 69.3538 54.1135 68.9043L53.173 66.4724C50.9788 66.0048 48.933 65.1389 47.111 63.9598L44.7224 65.0174C44.2825 65.2126 43.7411 65.079 43.3446 64.6842L40.9656 62.3061C40.5708 61.9096 40.4407 61.3699 40.635 60.9283L41.6927 58.5415C40.5127 56.7186 39.6494 54.671 39.18 52.4785L36.7438 51.5389C36.2961 51.3662 36.0063 50.8891 36.0063 50.3294V46.9665C36.0063 46.4061 36.2961 45.9297 36.7438 45.7553L39.1774 44.8166C39.6468 42.6258 40.511 40.5765 41.6918 38.7545L40.6342 36.3677C40.439 35.9269 40.57 35.3855 40.9647 34.989L43.3438 32.6126C43.7403 32.2152 44.2816 32.0842 44.7215 32.2795L47.1084 33.3362C48.933 32.1554 50.9779 31.2912 53.1722 30.8236L54.1127 28.3899C54.2836 27.9413 54.7599 27.6516 55.3213 27.6516H58.6833C59.2438 27.6516 59.7192 27.9413 59.8936 28.3899L60.8324 30.8236ZM33.662 58.9675H14.0216V54.2598H33.662H36.5728L36.9876 54.4194C37.4188 55.9143 38.0174 57.3554 38.7696 58.7193L38.6595 58.9675H33.662ZM27.8272 51.6586C28.2983 50.601 28.6679 49.4219 28.9221 48.1682H33.4069V50.3294C33.4069 50.7884 33.4824 51.237 33.6264 51.6586H27.8272ZM31.6621 27.6516C31.4539 27.4425 31.1641 27.3132 30.8422 27.3132C30.5238 27.3132 30.234 27.4433 30.0275 27.6542C29.8193 27.8607 29.6891 28.1513 29.6891 28.4689C29.6891 28.7664 29.7984 29.0363 29.9798 29.241L30.0275 29.2853C30.234 29.4935 30.5238 29.6254 30.8422 29.6254C31.1623 29.6254 31.4513 29.497 31.6595 29.2896L31.6638 29.2853C31.8686 29.0779 31.9979 28.789 31.9979 28.4697C31.9979 28.1522 31.8686 27.8615 31.6595 27.655L31.6621 27.6516ZM30.8422 24.7155C31.8755 24.7155 32.8126 25.1363 33.4928 25.8148L33.4963 25.8191L33.4997 25.8148C33.878 26.1948 34.1773 26.6547 34.3673 27.1709H48.5339C49.2505 27.1709 49.8336 27.7539 49.8336 28.4706C49.8336 28.7274 49.7607 28.9625 49.634 29.1656C50.1589 28.9669 50.6934 28.7881 51.2339 28.632L51.6877 27.4572C52.2655 25.9571 53.7352 25.053 55.3221 25.053H58.6842C60.2702 25.053 61.7408 25.9562 62.3186 27.4572L62.7724 28.6302C64.2708 29.0606 65.711 29.6584 67.0732 30.4141L67.3239 30.3047V0.0742188H0V37.3108H38.2118C37.627 35.8697 38.0348 34.2437 39.1288 33.1523L41.5061 30.7733C41.9755 30.3065 42.5395 29.9638 43.1477 29.7703H34.3647C34.1747 30.2813 33.8763 30.7394 33.4989 31.1194L33.4919 31.1264C32.8126 31.8049 31.8755 32.2265 30.8413 32.2265C29.8063 32.2265 28.8675 31.8057 28.1873 31.1264C28.1586 31.0969 28.1317 31.0674 28.1049 31.0361C27.7647 30.6735 27.4958 30.2449 27.3205 29.7703H18.7892C18.0725 29.7703 17.4895 29.1881 17.4895 28.4697C17.4895 27.7531 18.0725 27.17 18.7892 27.17H27.3179C27.5088 26.6538 27.8064 26.1948 28.1873 25.8139C28.8675 25.1363 29.8063 24.7155 30.8422 24.7155ZM41.2268 17.6644C41.0177 17.4553 40.7279 17.3277 40.4077 17.3277C40.0884 17.3277 39.7995 17.4579 39.5913 17.6661C39.3831 17.8743 39.252 18.1624 39.252 18.4834C39.252 18.7801 39.3622 19.0491 39.5436 19.2539L39.5913 19.2972C39.7995 19.5081 40.0884 19.6365 40.4077 19.6365C40.7261 19.6365 41.0159 19.5098 41.2242 19.3042L41.2294 19.2972C41.4341 19.0907 41.5625 18.801 41.5625 18.4834C41.5625 18.1624 41.4324 17.8735 41.2242 17.6661L41.2268 17.6644ZM40.4077 14.7266C41.4393 14.7266 42.3772 15.1483 43.0574 15.8285L43.06 15.8294L43.0626 15.8285C43.4418 16.2076 43.7411 16.6683 43.9311 17.1846H48.5339C49.2505 17.1846 49.8336 17.765 49.8336 18.4843C49.8336 19.2009 49.2505 19.7831 48.5339 19.7831H43.9303C43.7402 20.295 43.4418 20.7522 43.0626 21.1349L43.0574 21.1392C42.3772 21.8159 41.4402 22.2385 40.4077 22.2385C39.3709 22.2385 38.4321 21.8168 37.7519 21.1392C37.7233 21.1088 37.6964 21.0793 37.6704 21.0481C37.3294 20.6872 37.0613 20.2577 36.886 19.784H18.7901C18.0734 19.784 17.4904 19.2018 17.4904 18.4851C17.4904 17.7659 18.0734 17.1854 18.7901 17.1854H36.8843C37.0743 16.6692 37.3728 16.2085 37.7519 15.8294C38.4321 15.1483 39.3709 14.7266 40.4077 14.7266ZM28.1057 7.67458C27.8984 7.46895 27.6086 7.33794 27.2884 7.33794C26.9691 7.33794 26.6794 7.46809 26.472 7.67718C26.2638 7.88541 26.1336 8.17433 26.1336 8.49362C26.1336 8.79121 26.2429 9.06277 26.4243 9.26753L26.472 9.31091C26.6794 9.51914 26.9691 9.64755 27.2884 9.64755C27.6068 9.64755 27.8966 9.52261 28.1031 9.31525L28.1092 9.31091C28.3148 9.10095 28.4424 8.81463 28.4424 8.49448C28.4424 8.1752 28.3131 7.88628 28.1031 7.67805L28.1057 7.67458ZM27.2884 4.73855C28.32 4.73855 29.2579 5.15848 29.9381 5.83956L29.9407 5.84303L29.9433 5.83956C30.3234 6.21958 30.6218 6.68029 30.8118 7.19565H48.5339C49.2505 7.19565 49.8336 7.77609 49.8336 8.49448C49.8336 9.212 49.2505 9.79505 48.5339 9.79505H30.8101C30.621 10.3069 30.3216 10.765 29.9433 11.1451L29.9381 11.1494C29.2579 11.8279 28.3209 12.2504 27.2884 12.2504C26.2516 12.2504 25.3128 11.8288 24.6326 11.1494C24.6031 11.1216 24.5771 11.093 24.5511 11.06C24.2101 10.6982 23.9411 10.2696 23.765 9.79505H18.7901C18.0734 9.79505 17.4904 9.212 17.4904 8.49448C17.4904 7.77609 18.0734 7.19565 18.7901 7.19565H23.7633C23.955 6.68029 24.2517 6.21958 24.6326 5.83956C25.3128 5.15935 26.2516 4.73855 27.2884 4.73855ZM38.092 39.911H0V45.5671H33.6498C34.0142 44.565 34.7682 43.7329 35.8085 43.3303L36.985 42.8783C37.2799 41.8606 37.6478 40.8689 38.092 39.911Z" fill="#797CD0"/>
</svg>
