<svg width="79" height="84" viewBox="0 0 79 84" fill="none" xmlns="http://www.w3.org/2000/svg">
<path d="M49.3829 46.6485C49.4337 46.418 49.6212 46.254 49.8634 46.2305L53.7072 46.0118V42.711L49.8634 42.4922C49.6251 42.4805 49.4376 42.3047 49.3829 42.0743C49.1017 40.7735 48.59 39.5235 47.8517 38.3868C47.715 38.1875 47.7385 37.9297 47.8947 37.75L50.4689 34.875L48.1251 32.543L45.2501 35.1055C45.0743 35.2618 44.8126 35.2813 44.6134 35.1563C43.4767 34.418 42.2384 33.8946 40.9259 33.6251C40.6954 33.5743 40.5314 33.3751 40.5196 33.1446L40.3009 29.2892L36.9884 29.2931L36.7696 33.1486C36.7579 33.379 36.5939 33.5743 36.3634 33.629C35.0509 33.8986 33.8126 34.422 32.6642 35.1602C32.465 35.2852 32.215 35.2657 32.0392 35.1094L29.1525 32.5469L26.8205 34.8789L29.3947 37.7539C29.5509 37.9297 29.5627 38.1914 29.4377 38.3907C28.6994 39.5274 28.1877 40.7774 27.9065 42.0782C27.8557 42.3086 27.6565 42.4844 27.426 42.4961L23.5822 42.7149V46.0157L27.426 46.2344C27.6565 46.254 27.8518 46.4219 27.9065 46.6524C28.1877 47.9649 28.6994 49.2032 29.4377 50.3399C29.5627 50.5391 29.5509 50.7969 29.3947 50.9766L26.8205 53.8516L29.1525 56.1836L32.0392 53.6211C32.215 53.4649 32.465 53.4453 32.6642 53.5703C33.8087 54.3086 35.0509 54.832 36.3634 55.1133C36.5939 55.1563 36.7579 55.3516 36.7696 55.5938L36.9884 59.4376H40.3009L40.5196 55.5938C40.5314 55.3555 40.6954 55.1563 40.9259 55.1133C42.2384 54.8321 43.4767 54.3126 44.6134 53.5703C44.8126 53.4453 45.0704 53.4649 45.2501 53.6211L48.1251 56.1836L50.4689 53.8516L47.8947 50.9766C47.7385 50.8008 47.7189 50.5391 47.8517 50.3399C48.5939 49.1993 49.1017 47.961 49.3829 46.6485ZM38.645 51.1563C34.895 51.1563 31.8519 48.1055 31.8519 44.3633C31.8519 40.6133 34.895 37.5625 38.645 37.5625C42.395 37.5625 45.438 40.6133 45.438 44.3633C45.438 48.1055 42.395 51.1563 38.645 51.1563Z" fill="#797CD0"/>
<path d="M44.3945 44.3672C44.3945 47.5352 41.8125 50.1172 38.6445 50.1172C35.4687 50.1172 32.8945 47.5352 32.8945 44.3672C32.8945 41.1914 35.4687 38.6055 38.6445 38.6055C41.8125 38.6055 44.3945 41.1875 44.3945 44.3672Z" fill="#797CD0"/>
<path d="M21.3319 65.8045V71.199H18.625V72.242H21.7812C21.8007 72.2537 21.8241 72.2537 21.8554 72.2537C21.8866 72.2537 21.9179 72.2537 21.9491 72.242C22.1991 72.1912 22.3749 71.9803 22.3749 71.7303V65.8045L21.3319 65.8045ZM30.875 65.8045V75.9495H27.9805V76.9925H31.3985C31.6914 76.9925 31.918 76.762 31.918 76.473V65.805L30.875 65.8045ZM38.6562 65.8045V78.3665H39.6992V65.8045H38.6562ZM47.4764 75.9525V65.8075H46.4334V76.4755C46.4334 76.7685 46.6639 76.995 46.953 76.995H50.4335V75.952L47.4764 75.9525ZM57.0195 71.2025V65.808H55.9765V71.7338C55.9765 71.9838 56.164 72.1908 56.4022 72.2455C56.4335 72.2455 56.4647 72.2572 56.496 72.2572C56.5155 72.2572 56.539 72.2572 56.5468 72.2455H59.6718V71.2025L57.0195 71.2025Z" fill="#797CD0"/>
<path d="M64.4139 71.7225C64.4139 72.742 63.5897 73.578 62.5702 73.578C61.5506 73.578 60.7146 72.746 60.7146 71.7225C60.7146 70.7108 61.5467 69.8787 62.5702 69.8787C63.5936 69.8787 64.4139 70.7107 64.4139 71.7225Z" fill="#797CD0"/>
<path d="M17.6329 71.7225C17.6329 72.742 16.8009 73.578 15.7774 73.578C14.7579 73.578 13.9337 72.746 13.9337 71.7225C13.9337 70.7108 14.7579 69.8787 15.7774 69.8787C16.8008 69.8787 17.6329 70.7107 17.6329 71.7225Z" fill="#797CD0"/>
<path d="M26.9259 76.4725C26.9259 77.492 26.0939 78.3163 25.0821 78.3163C24.0626 78.3163 23.2267 77.4921 23.2267 76.4725C23.2267 75.453 24.0587 74.617 25.0821 74.617C26.1016 74.617 26.9259 75.4529 26.9259 76.4725Z" fill="#797CD0"/>
<path d="M41.0196 81.211C41.0196 82.2305 40.1954 83.0665 39.1758 83.0665C38.1562 83.0665 37.3203 82.2344 37.3203 81.211C37.3203 80.1915 38.1523 79.3555 39.1758 79.3555C40.1953 79.3594 41.0196 80.1914 41.0196 81.211Z" fill="#797CD0"/>
<path d="M55.1249 76.4725C55.1249 77.492 54.2929 78.3163 53.2694 78.3163C52.2577 78.3163 51.4256 77.4921 51.4256 76.4725C51.4256 75.453 52.2499 74.617 53.2694 74.617C54.289 74.617 55.1249 75.4529 55.1249 76.4725Z" fill="#797CD0"/>
<path d="M21.9688 10.8242C21.918 10.8125 21.8555 10.8125 21.8008 10.8125H18.625V11.8555H21.332V20.4063L22.375 19.8438V11.3321C22.375 11.0938 22.207 10.8867 21.9688 10.8242ZM31.3946 6.0742H27.9141V7.1172H30.8711V17.3792L31.9141 17.305V6.59398C31.9141 6.30492 31.6875 6.0742 31.3946 6.0742ZM38.6563 4.6875V17.7815C38.6563 17.8245 38.668 17.8635 38.6758 17.8948L39.5625 18.1331C39.6446 18.0393 39.6992 17.9143 39.6992 17.7776L39.6953 4.68759L38.6563 4.6875ZM46.9571 6.0742C46.6641 6.0742 46.4375 6.30467 46.4375 6.59373V21.2387L47.4805 21.9692L47.4766 7.1172H50.4336V6.0742H46.9571ZM56.5704 10.8125C56.5079 10.8008 56.4454 10.8125 56.3829 10.8242C56.1446 10.8867 55.9766 11.0937 55.9766 11.3359V24.1289L57.0196 23.7969V11.8559H59.7266V10.8129L56.5704 10.8125Z" fill="#797CD0"/>
<path d="M17.6329 11.336C17.6329 12.3555 16.8009 13.1915 15.7774 13.1915C14.7579 13.1915 13.9336 12.3595 13.9336 11.336C13.9336 10.3165 14.7578 9.49219 15.7774 9.49219C16.8008 9.49219 17.6329 10.3125 17.6329 11.336Z" fill="#797CD0"/>
<path d="M26.9259 6.5938C26.9259 7.6133 26.1016 8.4493 25.0821 8.4493C24.0625 8.4493 23.2266 7.61727 23.2266 6.5938C23.2266 5.5743 24.0586 4.75 25.0821 4.75C26.0938 4.75 26.9259 5.57422 26.9259 6.5938Z" fill="#797CD0"/>
<path d="M41.0313 1.8555C41.0313 2.875 40.1993 3.6993 39.1758 3.6993C38.1563 3.6993 37.332 2.87508 37.332 1.8555C37.332 0.83592 38.1563 0 39.1758 0C40.1954 0 41.0313 0.83594 41.0313 1.8555Z" fill="#797CD0"/>
<path d="M55.1251 6.5938C55.1251 7.6133 54.2931 8.4493 53.2696 8.4493C52.2501 8.4493 51.4258 7.61727 51.4258 6.5938C51.4258 5.5743 52.2578 4.75 53.2696 4.75C54.2891 4.75 55.1251 5.57422 55.1251 6.5938Z" fill="#797CD0"/>
<path d="M64.4141 11.336C64.4141 12.3555 63.5899 13.1915 62.5704 13.1915C61.5508 13.1915 60.7148 12.3595 60.7148 11.336C60.7148 10.3165 61.5469 9.49219 62.5704 9.49219C63.5938 9.49219 64.4141 10.3125 64.4141 11.336Z" fill="#797CD0"/>
<path d="M66.8829 40.8555C66.6759 40.8555 66.4962 40.7305 66.4142 40.543C66.34 40.3555 66.3712 40.1367 66.5079 39.9922C68.0822 38.2734 68.9454 36.0547 68.9454 33.7422C68.9454 28.6289 64.7892 24.4727 59.6759 24.4727C56.9571 24.4727 54.3751 25.6719 52.6017 27.7539C52.508 27.8789 52.3517 27.9414 52.1955 27.9414C52.0275 27.9297 51.883 27.8594 51.7892 27.7227C47.4572 21.8282 40.5082 18.3047 33.2072 18.3047C20.5002 18.3047 10.1563 28.6487 10.1563 41.3557C10.1563 43.0119 10.3438 44.6877 10.6992 46.3245C10.7305 46.4807 10.6992 46.637 10.5938 46.762C10.5 46.887 10.3438 46.9495 10.1875 46.9495H8.7305C3.918 46.9495 0 50.8675 0 55.68C0 60.4925 3.918 64.4105 8.7305 64.4105H21.6485C21.711 64.3792 21.7852 64.3675 21.8555 64.3675C21.918 64.3675 21.9922 64.3792 22.0547 64.4105H56.3047C56.3672 64.3792 56.4415 64.3675 56.504 64.3675C56.5782 64.3675 56.6485 64.3792 56.711 64.4105H66.5743C73.0626 64.4105 78.3553 59.1175 78.3553 52.6295C78.3514 46.1998 73.3123 41.0315 66.8823 40.8565L66.8829 40.8555ZM54.7499 46.5C54.7499 46.7812 54.5312 47.0117 54.2617 47.0195L50.3125 47.25C50.0195 48.418 49.5625 49.5195 48.9375 50.5625L51.5742 53.5195C51.75 53.7187 51.7421 54.0312 51.5546 54.2265L48.5234 57.2577C48.3242 57.4569 48.0117 57.4648 47.8047 57.2773L44.8477 54.6406C43.8165 55.2773 42.7032 55.7344 41.5352 56.0273L41.3164 59.9765C41.2969 60.246 41.0664 60.4647 40.7969 60.4647H36.5039C36.2344 60.4647 36.0039 60.246 35.9844 59.9765L35.7539 56.0273C34.5977 55.7343 33.4844 55.2773 32.4414 54.6406L29.4922 57.2773C29.2852 57.4648 28.9727 57.453 28.7735 57.2577L25.7423 54.2265C25.543 54.0273 25.5352 53.7148 25.7227 53.5195L28.3594 50.5625C27.7344 49.5195 27.2656 48.418 26.9844 47.25L23.0352 47.0195C22.754 47.0078 22.5469 46.7812 22.5469 46.5V42.2188C22.5469 41.9375 22.754 41.7071 23.0352 41.6993L26.9844 41.4688C27.2657 40.3008 27.7344 39.1993 28.3594 38.1563L25.7227 35.1993C25.5352 35.0001 25.5469 34.6876 25.7423 34.4923L28.7735 31.4611C28.9727 31.2619 29.2852 31.254 29.4922 31.4415L32.4414 34.0782C33.4844 33.4415 34.5976 32.9844 35.7539 32.6915L35.9844 28.754C36.0039 28.4728 36.2344 28.254 36.5039 28.254H40.7969C41.0664 28.254 41.2969 28.4728 41.3164 28.754L41.5352 32.6915C42.7032 32.9845 43.8164 33.4415 44.8477 34.0782L47.8047 31.4415C48.0117 31.254 48.3242 31.2658 48.5234 31.4611L51.5546 34.4923C51.7421 34.6915 51.7539 35.004 51.5742 35.1993L48.9375 38.1563C49.5625 39.1993 50.0195 40.3008 50.3125 41.4688L54.2617 41.6993C54.5312 41.711 54.7499 41.9375 54.7499 42.2188V46.5Z" fill="#797CD0"/>
</svg>
