<svg width="59" height="59" viewBox="0 0 59 59" fill="none" xmlns="http://www.w3.org/2000/svg">
<path d="M48.8433 22.5414H30.854V17.0995C30.854 16.5934 30.4272 16.1835 29.9002 16.1835H28.4083C27.3631 16.1835 26.5133 15.3654 26.5133 14.3597C26.5133 13.3559 27.3638 12.5396 28.4083 12.5396H29.9002C30.4272 12.5396 30.854 12.1297 30.854 11.6236V5.26323C30.854 4.7571 30.4272 4.34718 29.9002 4.34718C25.1041 4.34718 20.4685 6.01256 16.8464 9.03617C16.4489 9.36781 16.4066 9.94624 16.7525 10.3281C17.0978 10.7099 17.7 10.7505 18.0975 10.4183C21.1317 7.88528 24.9529 6.40694 28.9465 6.20318V10.7081H28.4083C26.3117 10.7081 24.6058 12.3466 24.6058 14.3603C24.6058 16.3759 26.3117 18.0156 28.4083 18.0156H28.9465V23.4575C28.9465 23.9636 29.3733 24.3735 29.9002 24.3735H47.864C47.5094 30.7571 43.4692 36.5032 37.3685 39.1814C37.0288 39.3302 36.8116 39.6559 36.8116 40.0144V42.94H22.9857V40.0144C22.9857 39.6565 22.7686 39.3308 22.4295 39.182C20.904 38.5104 19.4843 37.6391 18.2101 36.5922C17.8101 36.2636 17.2079 36.3084 16.8657 36.6926C16.5235 37.0768 16.5702 37.6553 16.9702 37.9839C18.2226 39.0135 19.6025 39.8889 21.0789 40.5922V42.9526C19.4208 43.0906 18.115 44.4297 18.115 46.0574C18.115 47.4802 19.1135 48.6831 20.4723 49.0548C20.2495 49.4766 20.1232 49.9523 20.1232 50.4566C20.1232 52.0204 21.3283 53.3183 22.893 53.54C23.8088 56.4883 26.6427 58.56 29.9009 58.56C33.1565 58.56 35.9892 56.4883 36.9043 53.5406C38.4709 53.3201 39.6778 52.0216 39.6778 50.4566C39.6778 49.9523 39.5516 49.476 39.3288 49.0536C40.6863 48.6807 41.683 47.479 41.683 46.0568C41.683 44.4291 40.3771 43.09 38.7191 42.952V40.5916C45.4688 37.3804 49.797 30.7189 49.797 23.4563C49.797 22.9513 49.3702 22.5414 48.8433 22.5414ZM29.9009 56.7285C27.7034 56.7285 25.7667 55.4533 24.9299 53.574H34.8687C34.0319 55.4533 32.0958 56.7285 29.9009 56.7285ZM36.4321 51.7419H23.369C22.6311 51.7419 22.0307 51.1653 22.0307 50.4566C22.0307 49.7497 22.6311 49.1743 23.369 49.1743H36.4321C37.17 49.1743 37.7704 49.7497 37.7704 50.4566C37.7704 51.1653 37.17 51.7419 36.4321 51.7419ZM39.7755 46.0574C39.7755 46.7661 39.1752 47.3428 38.4373 47.3428H36.4321H23.369H21.3607C20.6228 47.3428 20.0225 46.7661 20.0225 46.0574C20.0225 45.3487 20.6228 44.7721 21.3607 44.7721H38.4367C39.1752 44.7715 39.7755 45.3487 39.7755 46.0574ZM38.6432 0C38.1163 0 37.6895 0.40992 37.6895 0.916046V6.35794H37.1513C35.0547 6.35794 33.3488 7.99762 33.3488 10.0132C33.3488 12.0269 35.0547 13.6654 37.1513 13.6654H37.6895V19.1103C37.6895 19.6164 38.1163 20.0263 38.6432 20.0263H57.5863C58.1132 20.0263 58.54 19.6164 58.54 19.1103C58.5394 8.57247 49.6141 0 38.6432 0ZM39.5963 18.1942V12.7493C39.5963 12.2432 39.1696 11.8333 38.6426 11.8333H37.1507C36.1055 11.8333 35.2556 11.0165 35.2556 10.0132C35.2556 9.00748 36.1061 8.18944 37.1507 8.18944H38.6426C39.1696 8.18944 39.5963 7.77952 39.5963 7.27339V1.85599C48.7587 2.3173 56.1267 9.3941 56.607 18.1942H39.5963ZM19.5291 34.0777C19.9061 34.306 20.397 34.2534 20.7124 33.9505L23.5849 31.1916C23.8997 30.8892 23.955 30.4171 23.7174 30.0556L22.1757 27.7078C22.2516 27.5447 22.3219 27.3816 22.3872 27.2173L25.2074 26.603C25.6417 26.5086 25.9502 26.1375 25.9502 25.7096V21.8064C25.9502 21.3786 25.6417 21.0075 25.2068 20.9131L22.3872 20.3018C22.3219 20.1381 22.2516 19.9749 22.1757 19.8118L23.7174 17.464C23.955 17.1025 23.9003 16.631 23.5855 16.3281L20.713 13.5656C20.3976 13.2626 19.9061 13.2095 19.5291 13.4383L17.0866 14.9208C16.9186 14.8485 16.7481 14.781 16.5752 14.7177L15.9356 12.0096C15.8373 11.5925 15.4509 11.2961 15.0055 11.2961H10.941C10.4956 11.2961 10.1092 11.5925 10.0109 12.0102L9.37446 14.7177C9.20151 14.781 9.03166 14.8485 8.86368 14.9203L6.42115 13.4377C6.04413 13.2089 5.55201 13.2615 5.23721 13.565L2.36477 16.3275C2.04996 16.6304 1.99522 17.1013 2.23287 17.4634L3.77393 19.8094C3.69865 19.9708 3.62834 20.1345 3.5624 20.3006L0.743462 20.9119C0.308583 21.0063 0 21.3774 0 21.8052V25.7084C0 26.1363 0.308583 26.5068 0.74284 26.6018L3.5624 27.2161C3.62834 27.3822 3.69865 27.5465 3.77393 27.7078L2.23287 30.0538C1.99459 30.4177 2.04996 30.8892 2.36477 31.1922L5.23721 33.9511C5.55263 34.254 6.04351 34.306 6.42052 34.0783L8.86493 32.5976C9.03415 32.6705 9.20462 32.738 9.37509 32.8008L10.0115 35.5089C10.1098 35.9266 10.4962 36.2229 10.9416 36.2229H15.0055C15.4509 36.2229 15.8367 35.9266 15.9356 35.5095L16.5752 32.8002C16.7456 32.7374 16.9161 32.6699 17.0853 32.597L19.5291 34.0777ZM15.4727 31.2304C15.1498 31.3284 14.9059 31.5842 14.8307 31.9009L14.2427 34.3909H11.7025L11.1177 31.9021C11.0431 31.5848 10.7986 31.329 10.4757 31.2304C10.0632 31.1049 9.64572 30.9388 9.23448 30.7368C8.93461 30.5892 8.57625 30.6048 8.29193 30.7775L6.04724 32.1375L4.25235 30.4136L5.66835 28.257C5.8494 27.9815 5.86433 27.6349 5.70817 27.3463C5.50473 26.9699 5.33302 26.5707 5.19739 26.159C5.09536 25.8489 4.8297 25.6146 4.49934 25.5423L1.90687 24.9776V22.5396L4.4981 21.9779C4.82846 21.9062 5.09474 21.6714 5.19739 21.3613C5.33302 20.9501 5.50473 20.551 5.70879 20.1739C5.86495 19.8853 5.8494 19.5387 5.66897 19.2633L4.25235 17.1067L6.04786 15.3804L8.29256 16.7428C8.57936 16.9167 8.94021 16.9316 9.24133 16.7816C9.63265 16.5862 10.0489 16.4213 10.4775 16.2904C10.8004 16.1924 11.0449 15.9367 11.1196 15.6188L11.7044 13.13H14.2446L14.8325 15.6194C14.9072 15.9367 15.1517 16.1918 15.474 16.2898C15.9026 16.4207 16.3188 16.5856 16.7102 16.781C17.0113 16.931 17.3721 16.9161 17.6589 16.7422L19.9036 15.3798L21.6991 17.1061L20.2825 19.2627C20.1027 19.5363 20.0865 19.8805 20.2402 20.1685C20.4505 20.5635 20.6234 20.9645 20.7541 21.3607C20.8561 21.6708 21.1224 21.9056 21.4534 21.9773L24.0446 22.539V24.9788L21.4521 25.5435C21.1218 25.6152 20.8561 25.8501 20.7541 26.1602C20.6234 26.557 20.4505 26.9579 20.2402 27.3523C20.0865 27.6403 20.1027 27.9845 20.2825 28.2582L21.6985 30.4147L19.9036 32.1387L17.6583 30.7787C17.3734 30.606 17.015 30.5904 16.7158 30.738C16.3033 30.9394 15.8852 31.1049 15.4727 31.2304ZM19.2933 23.7586C19.2933 20.4129 16.4582 17.6911 12.9729 17.6911C9.48956 17.6911 6.65569 20.4129 6.65569 23.7586C6.65569 27.1061 9.48956 29.8291 12.9729 29.8291C16.4582 29.8297 19.2933 27.1061 19.2933 23.7586ZM12.9729 27.9977C10.541 27.9977 8.56319 26.0962 8.56319 23.7586C8.56319 21.4228 10.5416 19.5232 12.9729 19.5232C15.4068 19.5232 17.3864 21.4234 17.3864 23.7586C17.3864 26.0962 15.4061 27.9977 12.9729 27.9977Z" fill="#797CD0"/>
</svg>
