<svg width="60" height="59" viewBox="0 0 60 59" fill="none" xmlns="http://www.w3.org/2000/svg">
<path d="M2.88874 53.7152V4.91871C2.88874 4.14221 3.1971 3.39752 3.74599 2.84845C4.29488 2.29939 5.03934 1.99092 5.81559 1.99092H36.0597V6.87057C36.0597 7.64707 36.3681 8.39177 36.917 8.94083C37.4659 9.4899 38.2104 9.79836 38.9866 9.79836H43.8647V29.317H45.8159V8.82243C45.8159 8.56362 45.713 8.31543 45.5301 8.13245L37.7251 0.32501C37.5422 0.141975 37.2941 0.0391178 37.0354 0.0390625H5.81559C4.52232 0.0406121 3.28245 0.555214 2.36797 1.46999C1.45349 2.38477 0.939049 3.62502 0.9375 4.91871V53.7152C0.939049 55.0089 1.45349 56.2492 2.36797 57.1639C3.28245 58.0787 4.52232 58.5933 5.81559 58.5949H36.0597V56.643H5.81559C5.03934 56.643 4.29488 56.3345 3.74599 55.7855C3.1971 55.2364 2.88874 54.4917 2.88874 53.7152ZM38.011 6.87057V3.37089L42.4852 7.8465H38.9866C38.7278 7.8465 38.4797 7.74368 38.2967 7.56066C38.1138 7.37764 38.011 7.12941 38.011 6.87057Z" fill="#797CD0"/>
<path d="M11.6711 12.7248H9.71982C9.46107 12.7248 9.21292 12.622 9.02996 12.4389C8.84699 12.2559 8.7442 12.0077 8.7442 11.7488H6.79297C6.79297 12.5253 7.10133 13.27 7.65022 13.8191C8.19912 14.3682 8.94357 14.6766 9.71982 14.6766V15.6526H11.6711V14.6766C12.4473 14.6766 13.1918 14.3682 13.7407 13.8191C14.2895 13.27 14.5979 12.5253 14.5979 11.7488C14.5979 10.9723 14.2895 10.2277 13.7407 9.67859C13.1918 9.12952 12.4473 8.82106 11.6711 8.82106H9.71982C9.46107 8.82106 9.21292 8.71824 9.02996 8.53521C8.84699 8.35219 8.7442 8.10396 8.7442 7.84513C8.7442 7.58629 8.84699 7.33806 9.02996 7.15504C9.21292 6.97202 9.46107 6.8692 9.71982 6.8692H11.6711C11.9298 6.8692 12.178 6.97202 12.3609 7.15504C12.5439 7.33806 12.6467 7.58629 12.6467 7.84513H14.5979C14.5979 7.06863 14.2895 6.32393 13.7407 5.77487C13.1918 5.2258 12.4473 4.91734 11.6711 4.91734V3.94141H9.71982V4.91734C8.94357 4.91734 8.19912 5.2258 7.65022 5.77487C7.10133 6.32393 6.79297 7.06863 6.79297 7.84513C6.79297 8.62162 7.10133 9.36632 7.65022 9.91539C8.19912 10.4645 8.94357 10.7729 9.71982 10.7729H11.6711C11.9298 10.7729 12.178 10.8757 12.3609 11.0588C12.5439 11.2418 12.6467 11.49 12.6467 11.7488C12.6467 12.0077 12.5439 12.2559 12.3609 12.4389C12.178 12.622 11.9298 12.7248 11.6711 12.7248Z" fill="#797CD0"/>
<path d="M15.5755 44.9321C15.3168 44.9321 15.0686 45.035 14.8857 45.218C14.7027 45.401 14.5999 45.6492 14.5999 45.9081V51.7637C14.5999 52.0225 14.7027 52.2707 14.8857 52.4537C15.0686 52.6368 15.3168 52.7396 15.5755 52.7396H21.4293C21.688 52.7396 21.9362 52.6368 22.1191 52.4537C22.3021 52.2707 22.4049 52.0225 22.4049 51.7637V49.8118H28.2586C28.5173 49.8118 28.7655 49.709 28.9485 49.526C29.1314 49.3429 29.2342 49.0947 29.2342 48.8359V40.0525H31.1854C31.4442 40.0525 31.6923 39.9497 31.8753 39.7667C32.0583 39.5836 32.1611 39.3354 32.1611 39.0766V33.221C32.1611 32.9622 32.0583 32.7139 31.8753 32.5309C31.6923 32.3479 31.4442 32.2451 31.1854 32.2451H25.3317C25.073 32.2451 24.8248 32.3479 24.6419 32.5309C24.4589 32.7139 24.3561 32.9622 24.3561 33.221V35.1728H22.7298L19.478 32.733V26.3895H21.4293C21.688 26.3895 21.9362 26.2867 22.1191 26.1036C22.3021 25.9206 22.4049 25.6724 22.4049 25.4135V19.558C22.4049 19.2991 22.3021 19.0509 22.1191 18.8679C21.9362 18.6849 21.688 18.582 21.4293 18.582H15.5755C15.3168 18.582 15.0686 18.6849 14.8857 18.8679C14.7027 19.0509 14.5999 19.2991 14.5999 19.558V25.4135C14.5999 25.6724 14.7027 25.9206 14.8857 26.1036C15.0686 26.2867 15.3168 26.3895 15.5755 26.3895H17.5268V32.733L14.275 35.1728H12.6487V33.221C12.6487 32.9622 12.5459 32.7139 12.3629 32.5309C12.18 32.3479 11.9318 32.2451 11.6731 32.2451H5.81937C5.56062 32.2451 5.31247 32.3479 5.1295 32.5309C4.94654 32.7139 4.84375 32.9622 4.84375 33.221V39.0766C4.84375 39.3354 4.94654 39.5836 5.1295 39.7667C5.31247 39.9497 5.56062 40.0525 5.81937 40.0525H11.6731C11.9318 40.0525 12.18 39.9497 12.3629 39.7667C12.5459 39.5836 12.6487 39.3354 12.6487 39.0766V37.1247H14.275L17.5268 39.5645V44.9321H15.5755ZM16.5512 20.5339H20.4536V24.4376H16.5512V20.5339ZM10.6975 38.1006H6.79499V34.1969H10.6975V38.1006ZM20.4536 50.7877H16.5512V46.884H20.4536V50.7877ZM26.3073 34.1969H30.2098V38.1006H26.3073V34.1969ZM18.5024 34.4409L20.7785 36.1488L18.5024 37.8567L16.2263 36.1488L18.5024 34.4409ZM19.478 39.5645L22.7298 37.1247H24.3561V39.0766C24.3561 39.3354 24.4589 39.5836 24.6419 39.7667C24.8248 39.9497 25.073 40.0525 25.3317 40.0525H27.283V47.8599H22.4049V45.9081C22.4049 45.6492 22.3021 45.401 22.1191 45.218C21.9362 45.035 21.688 44.9321 21.4293 44.9321H19.478V39.5645Z" fill="#797CD0"/>
<path d="M28.2582 12.7266H16.5508V14.6784H28.2582V12.7266Z" fill="#797CD0"/>
<path d="M28.2542 8.82422H20.4492V10.7761H28.2542V8.82422Z" fill="#797CD0"/>
<path d="M18.5026 8.82422H16.5508V10.7761H18.5026V8.82422Z" fill="#797CD0"/>
<path d="M58.6365 42.0145L56.0199 41.6407C55.843 41.0904 55.6215 40.5554 55.3574 40.0412L56.9428 37.9263C57.0834 37.7385 57.1516 37.5062 57.135 37.2722C57.1183 37.0381 57.0179 36.8178 56.8521 36.6518L54.093 33.8919C53.927 33.726 53.7069 33.6255 53.4729 33.6089C53.2388 33.5922 53.0067 33.6605 52.8189 33.8011L50.7047 35.387C50.1906 35.123 49.6558 34.9014 49.1057 34.7243L48.732 32.1069C48.6987 31.8744 48.5826 31.6618 48.4052 31.508C48.2278 31.3542 48.0009 31.2695 47.7661 31.2695H43.8637C43.6289 31.2695 43.402 31.3542 43.2246 31.508C43.0472 31.6618 42.9311 31.8744 42.8978 32.1069L42.5241 34.7243C41.974 34.9012 41.4392 35.1228 40.9251 35.387L38.8109 33.8011C38.6231 33.6605 38.391 33.5922 38.157 33.6089C37.9229 33.6255 37.7028 33.726 37.5368 33.8919L34.7777 36.6518C34.6119 36.8178 34.5115 37.0381 34.4949 37.2722C34.4782 37.5062 34.5464 37.7385 34.687 37.9263L36.2724 40.0412C36.0083 40.5554 35.7868 41.0904 35.6099 41.6407L32.9933 42.0145C32.7609 42.0479 32.5484 42.1639 32.3946 42.3414C32.2408 42.5189 32.1562 42.7458 32.1562 42.9807V46.8844C32.1562 47.1193 32.2408 47.3462 32.3946 47.5237C32.5484 47.7012 32.7609 47.8172 32.9933 47.8506L35.6099 48.2244C35.7868 48.7747 36.0083 49.3097 36.2724 49.8239L34.687 51.9388C34.5464 52.1266 34.4782 52.3589 34.4949 52.593C34.5115 52.827 34.6119 53.0473 34.7777 53.2133L37.5368 55.9733C37.7028 56.1391 37.9229 56.2396 38.157 56.2562C38.391 56.2729 38.6231 56.2047 38.8109 56.064L40.9251 54.4781C41.4392 54.7423 41.974 54.9639 42.5241 55.1408L42.8978 57.7582C42.9311 57.9907 43.0472 58.2033 43.2246 58.3571C43.402 58.5109 43.6289 58.5956 43.8637 58.5956H47.7661C48.0009 58.5956 48.2278 58.5109 48.4052 58.3571C48.5826 58.2033 48.6987 57.9907 48.732 57.7582L49.1057 55.1408C49.6558 54.9637 50.1906 54.7421 50.7047 54.4781L52.8189 56.064C53.0067 56.2047 53.2388 56.2729 53.4729 56.2562C53.7069 56.2396 53.927 56.1391 54.093 55.9733L56.8521 53.2133C57.0179 53.0473 57.1183 52.827 57.135 52.593C57.1516 52.3589 57.0834 52.1266 56.9428 51.9388L55.3574 49.8239C55.6215 49.3097 55.843 48.7747 56.0199 48.2244L58.6365 47.8506C58.8689 47.8172 59.0814 47.7012 59.2352 47.5237C59.389 47.3462 59.4736 47.1193 59.4736 46.8844V42.9807C59.4736 42.7458 59.389 42.5189 59.2352 42.3414C59.0814 42.1639 58.8689 42.0479 58.6365 42.0145ZM57.5223 46.0383L55.1194 46.3808C54.9281 46.4083 54.7493 46.492 54.6057 46.6213C54.4621 46.7506 54.36 46.9196 54.3125 47.1069C54.1068 47.9152 53.7858 48.6895 53.3594 49.4062C53.261 49.5724 53.2142 49.7641 53.2248 49.9569C53.2354 50.1497 53.3029 50.3351 53.4189 50.4895L54.8745 52.4326L53.3135 53.9941L51.371 52.538C51.2167 52.422 51.0314 52.3544 50.8386 52.3438C50.6458 52.3332 50.4543 52.3801 50.2881 52.4784C49.5717 52.905 48.7975 53.2261 47.9896 53.4319C47.8023 53.4794 47.6333 53.5815 47.5041 53.7252C47.3749 53.8689 47.2912 54.0477 47.2637 54.239L46.9203 56.6437H44.7095L44.3671 54.24C44.3396 54.0487 44.2559 53.8699 44.1267 53.7262C43.9975 53.5825 43.8285 53.4804 43.6412 53.4329C42.8333 53.2271 42.0591 52.906 41.3427 52.4794C41.1765 52.381 40.9849 52.3342 40.7922 52.3448C40.5994 52.3554 40.4141 52.423 40.2597 52.5389L38.3173 53.995L36.7563 52.4336L38.2119 50.4905C38.3279 50.3361 38.3954 50.1507 38.406 49.9579C38.4166 49.765 38.3698 49.5734 38.2714 49.4072C37.845 48.6905 37.524 47.9161 37.3182 47.1079C37.2707 46.9206 37.1687 46.7515 37.0251 46.6223C36.8814 46.493 36.7027 46.4093 36.5114 46.3818L34.1075 46.0383V43.8268L36.5104 43.4843C36.7017 43.4568 36.8805 43.3731 37.0241 43.2438C37.1677 43.1145 37.2698 42.9455 37.3173 42.7582C37.523 41.9499 37.844 41.1756 38.2704 40.4589C38.3688 40.2927 38.4156 40.101 38.405 39.9082C38.3944 39.7154 38.3269 39.53 38.2109 39.3756L36.7553 37.4325L38.3163 35.871L40.2588 37.3271C40.4131 37.4431 40.5984 37.5107 40.7912 37.5213C40.984 37.5319 41.1756 37.485 41.3417 37.3867C42.0581 36.9601 42.8323 36.639 43.6403 36.4332C43.8275 36.3857 43.9965 36.2836 44.1257 36.1399C44.2549 35.9962 44.3386 35.8174 44.3661 35.6261L44.7095 33.2214H46.9203L47.2627 35.6251C47.2902 35.8164 47.3739 35.9952 47.5031 36.1389C47.6323 36.2826 47.8013 36.3847 47.9886 36.4322C48.7966 36.638 49.5707 36.9591 50.2871 37.3857C50.4533 37.4841 50.6449 37.5309 50.8376 37.5203C51.0304 37.5097 51.2157 37.4422 51.3701 37.3262L53.3125 35.8701L54.8735 37.4316L53.4179 39.3746C53.3019 39.529 53.2344 39.7144 53.2238 39.9072C53.2132 40.1001 53.26 40.2917 53.3584 40.4579C53.7848 41.1746 54.1058 41.949 54.3116 42.7572C54.3591 42.9445 54.4611 43.1136 54.6047 43.2428C54.7484 43.3721 54.9271 43.4558 55.1184 43.4833L57.5223 43.8268V46.0383Z" fill="#797CD0"/>
<path d="M46.7956 35.1719H44.8438V37.1237H46.7956V35.1719Z" fill="#797CD0"/>
<path d="M39.6026 37.3423L38.2227 38.7227L39.6026 40.1031L40.9826 38.7227L39.6026 37.3423Z" fill="#797CD0"/>
<path d="M38.0144 43.957H36.0625V45.9089H38.0144V43.957Z" fill="#797CD0"/>
<path d="M39.6026 49.7641L38.2227 51.1445L39.6026 52.5249L40.9826 51.1445L39.6026 49.7641Z" fill="#797CD0"/>
<path d="M46.7956 52.7383H44.8438V54.6901H46.7956V52.7383Z" fill="#797CD0"/>
<path d="M52.0245 49.7641L50.6445 51.1445L52.0245 52.5249L53.4044 51.1445L52.0245 49.7641Z" fill="#797CD0"/>
<path d="M55.5769 43.957H53.625V45.9089H55.5769V43.957Z" fill="#797CD0"/>
<path d="M52.0245 37.3423L50.6445 38.7227L52.0245 40.1031L53.4044 38.7227L52.0245 37.3423Z" fill="#797CD0"/>
<path d="M45.8225 39.0742C44.6647 39.0742 43.533 39.4176 42.5703 40.0611C41.6077 40.7045 40.8574 41.619 40.4143 42.689C39.9713 43.7589 39.8554 44.9363 40.0812 46.0722C40.3071 47.208 40.8646 48.2514 41.6833 49.0703C42.5019 49.8892 43.5449 50.4469 44.6805 50.6729C45.816 50.8988 46.993 50.7828 48.0626 50.3396C49.1322 49.8965 50.0464 49.1459 50.6896 48.183C51.3329 47.22 51.6762 46.0879 51.6762 44.9298C51.6746 43.3773 51.0574 41.8888 49.9599 40.791C48.8625 39.6932 47.3745 39.0758 45.8225 39.0742ZM45.8225 48.8335C45.0506 48.8335 44.2961 48.6046 43.6544 48.1756C43.0126 47.7467 42.5124 47.137 42.217 46.4237C41.9217 45.7104 41.8444 44.9255 41.995 44.1682C42.1456 43.411 42.5172 42.7154 43.063 42.1695C43.6088 41.6235 44.3041 41.2517 45.0611 41.1011C45.8181 40.9505 46.6028 41.0278 47.3159 41.3232C48.029 41.6187 48.6384 42.119 49.0672 42.761C49.4961 43.403 49.7249 44.1577 49.7249 44.9298C49.7249 45.9651 49.3138 46.9581 48.5819 47.6901C47.8501 48.4222 46.8575 48.8335 45.8225 48.8335Z" fill="#797CD0"/>
<path d="M39.9632 18.582H30.207V20.5339H39.9632V18.582Z" fill="#797CD0"/>
<path d="M39.9632 22.4844H30.207V24.4362H39.9632V22.4844Z" fill="#797CD0"/>
<path d="M39.9632 26.3906H30.207V28.3425H39.9632V26.3906Z" fill="#797CD0"/>
</svg>
