<svg width="60" height="59" viewBox="0 0 60 59" fill="none" xmlns="http://www.w3.org/2000/svg">
<path d="M0.921898 51.0814C0.918212 52.5098 1.35807 53.9095 2.18966 55.1156C3.02126 56.3217 4.20997 57.284 5.61581 57.8891C7.02165 58.4942 8.58607 58.717 10.1248 58.5312C11.6636 58.3454 13.1127 57.7587 14.3014 56.8403C15.4901 55.9219 16.3689 54.71 16.8343 53.3473C17.2998 51.9845 17.3325 50.5278 16.9286 49.1485C16.5248 47.7693 15.7011 46.5249 14.5547 45.5621C13.4083 44.5993 11.9868 43.958 10.4577 43.7138V34.8727C10.4577 33.0037 11.2643 31.2112 12.7002 29.8896C14.136 28.568 16.0835 27.8255 18.1141 27.8255H41.1531C43.9221 27.8255 46.5777 26.813 48.5357 25.0108C50.4937 23.2086 51.5937 20.7643 51.5937 18.2156V4.44148L57.2316 9.63081C57.4997 9.81587 57.8313 9.90571 58.1656 9.88385C58.4998 9.86198 58.8143 9.72988 59.0512 9.51178C59.2882 9.29369 59.4317 9.00424 59.4555 8.69659C59.4792 8.38893 59.3816 8.08371 59.1805 7.83697L51.1761 0.405336C50.9158 0.170564 50.566 0.0390625 50.2016 0.0390625C49.8372 0.0390625 49.4874 0.170564 49.2272 0.405336L41.2227 7.7729C41.0216 8.01965 40.924 8.32486 40.9478 8.63252C40.9715 8.94018 41.115 9.22962 41.352 9.44772C41.5889 9.66581 41.9034 9.79792 42.2377 9.81978C42.5719 9.84165 42.9035 9.7518 43.1716 9.56674L48.8095 4.37741V18.2156C48.8095 20.0847 48.0029 21.8772 46.567 23.1988C45.1311 24.5204 43.1837 25.2629 41.1531 25.2629H18.1141C15.3451 25.2629 12.6895 26.2753 10.7315 28.0775C8.77349 29.8797 7.6735 32.324 7.6735 34.8727V43.7138C5.78656 44.0151 4.07535 44.9189 2.84058 46.2663C1.6058 47.6138 0.926448 49.3186 0.921898 51.0814ZM9.06558 46.1483C10.1256 46.1483 11.1618 46.4376 12.0432 46.9797C12.9245 47.5217 13.6115 48.2922 14.0171 49.1936C14.4228 50.095 14.5289 51.0868 14.3221 52.0438C14.1153 53.0007 13.6049 53.8797 12.8553 54.5696C12.1058 55.2595 11.1508 55.7293 10.1112 55.9196C9.07152 56.11 7.9939 56.0123 7.01458 55.6389C6.03526 55.2655 5.19822 54.6333 4.6093 53.822C4.02039 53.0108 3.70606 52.057 3.70606 51.0814C3.70606 49.773 4.27072 48.5183 5.27583 47.5932C6.28093 46.668 7.64415 46.1483 9.06558 46.1483Z" fill="#797CD0"/>
<path d="M40.7285 53.259H40.9373C41.2385 53.259 41.5316 53.1691 41.7725 53.0028L52.3524 45.9555C52.5818 45.74 52.7213 45.4569 52.7462 45.156C52.7711 44.8552 52.6799 44.5559 52.4886 44.3108C52.2972 44.0658 52.0181 43.8908 51.7003 43.8166C51.3825 43.7425 51.0465 43.7739 50.7515 43.9054L41.2853 50.2479L38.0835 46.1477C37.8712 45.8674 37.5466 45.6761 37.1811 45.6161C36.8156 45.556 36.4392 45.632 36.1346 45.8274C35.83 46.0228 35.6222 46.3216 35.557 46.658C35.4917 46.9944 35.5743 47.3409 35.7866 47.6213L39.754 52.7465C39.8689 52.8895 40.0149 53.0089 40.1826 53.0972C40.3504 53.1854 40.5363 53.2405 40.7285 53.259Z" fill="#797CD0"/>
<path d="M14.7008 4.69531C14.3316 4.69531 13.9776 4.83031 13.7165 5.0706C13.4554 5.31089 13.3088 5.6368 13.3088 5.97663V10.3331H8.57568C8.20647 10.3331 7.85239 10.4681 7.59133 10.7084C7.33026 10.9487 7.18359 11.2746 7.18359 11.6144C7.18359 11.9542 7.33026 12.2801 7.59133 12.5204C7.85239 12.7607 8.20647 12.8957 8.57568 12.8957H13.3088V17.2522C13.3088 17.592 13.4554 17.9179 13.7165 18.1582C13.9776 18.3985 14.3316 18.5335 14.7008 18.5335C15.07 18.5335 15.4241 18.3985 15.6852 18.1582C15.9463 17.9179 16.0929 17.592 16.0929 17.2522V12.8957H20.826C21.1952 12.8957 21.5493 12.7607 21.8104 12.5204C22.0714 12.2801 22.2181 11.9542 22.2181 11.6144C22.2181 11.2746 22.0714 10.9487 21.8104 10.7084C21.5493 10.4681 21.1952 10.3331 20.826 10.3331H16.0929V5.97663C16.0929 5.6368 15.9463 5.31089 15.6852 5.0706C15.4241 4.83031 15.07 4.69531 14.7008 4.69531Z" fill="#797CD0"/>
</svg>
