<svg width="60" height="59" viewBox="0 0 60 59" fill="none" xmlns="http://www.w3.org/2000/svg">
<path d="M42.7735 31.1698H40.8718C40.4535 31.1698 40.0843 30.9063 39.9533 30.5141C39.697 29.7488 39.3836 28.993 39.0225 28.2682C38.8372 27.8965 38.9115 27.4481 39.2073 27.1522L40.5526 25.8065C41.6964 24.6628 41.6964 22.801 40.5526 21.6573L37.7158 18.8196C36.573 17.6769 34.7118 17.676 33.568 18.8196L32.2222 20.1653C31.9269 20.4617 31.4791 20.5361 31.107 20.3502C30.3825 19.989 29.6269 19.6755 28.8614 19.4191C28.4698 19.2881 28.2064 18.9187 28.2064 18.5004V16.598C28.2064 14.9802 26.8906 13.6641 25.2733 13.6641H21.2613C19.644 13.6641 18.3283 14.9802 18.3283 16.598V18.5004C18.3283 18.9187 18.0648 19.2881 17.6728 19.4191C16.9077 19.6755 16.1522 19.989 15.4276 20.3502C15.056 20.5361 14.6073 20.4603 14.3119 20.1653L12.9667 18.8196C11.8224 17.675 9.9612 17.676 8.81886 18.8196L5.98204 21.6573C4.83827 22.801 4.83827 24.6628 5.98204 25.8065L7.32733 27.1527C7.62316 27.4481 7.69747 27.8965 7.51216 28.2682C7.15107 28.993 6.83761 29.7488 6.58132 30.5146C6.45032 30.9063 6.08112 31.1698 5.66287 31.1698H3.76117C2.14388 31.1698 0.828125 32.486 0.828125 34.1038V38.1171C0.828125 39.7349 2.14387 41.0511 3.76117 41.0511H5.66287C6.08112 41.0511 6.45032 41.3146 6.58132 41.7068C6.83762 42.4721 7.15107 43.2279 7.51216 43.9527C7.69747 44.3244 7.62316 44.7728 7.32733 45.0687L5.98204 46.4144C4.83827 47.5581 4.83827 49.4199 5.98204 50.5636L8.81886 53.4013C9.96216 54.5449 11.8234 54.5459 12.9667 53.4013L14.3124 52.0556C14.6073 51.7592 15.056 51.6853 15.4276 51.8707C16.1522 52.2319 16.9077 52.5454 17.6733 52.8018C18.0648 52.9328 18.3283 53.3022 18.3283 53.7206V55.6228C18.3283 57.2407 19.644 58.5568 21.2613 58.5568H25.2733C26.8906 58.5568 28.2064 57.2407 28.2064 55.6228V53.7206C28.2064 53.3022 28.4698 52.9328 28.8619 52.8018C29.6269 52.5454 30.3825 52.2319 31.107 51.8707C31.4791 51.6853 31.9278 51.7606 32.2227 52.0556L33.568 53.4013C34.7108 54.5449 36.572 54.544 37.7158 53.4013L40.5526 50.5636C41.6964 49.4199 41.6964 47.5581 40.5526 46.4144L39.2073 45.0682C38.9115 44.7728 38.8372 44.3244 39.0225 43.9527C39.3836 43.2279 39.697 42.4721 39.9533 41.7063C40.0843 41.3146 40.4535 41.0511 40.8718 41.0511H42.7735C44.3908 41.0511 45.7065 39.7349 45.7065 38.1171V34.1038C45.7065 32.486 44.3908 31.1698 42.7735 31.1698ZM43.7553 38.1171C43.7553 38.6584 43.3146 39.0992 42.7735 39.0992H40.8718C39.6137 39.0992 38.5009 39.8979 38.1031 41.0864C37.8754 41.7664 37.5972 42.4378 37.2761 43.0816C36.7159 44.2062 36.9379 45.559 37.8277 46.4487L39.173 47.7945C39.5556 48.1776 39.5556 48.8004 39.173 49.1835L36.3362 52.0212C35.9532 52.4044 35.3306 52.4044 34.9476 52.0212L33.6028 50.6755C32.7134 49.7844 31.3586 49.5624 30.2362 50.1237C29.5926 50.4449 28.9214 50.7232 28.2421 50.951C27.0536 51.3489 26.2551 52.462 26.2551 53.7206V55.6228C26.2551 56.1642 25.8145 56.605 25.2733 56.605H21.2613C20.7201 56.605 20.2795 56.1642 20.2795 55.6228V53.7206C20.2795 52.462 19.4811 51.3489 18.293 50.951C17.6132 50.7232 16.942 50.4449 16.2984 50.1237C15.8845 49.9174 15.44 49.8173 14.9989 49.8173C14.2414 49.8173 13.494 50.1128 12.9324 50.6755L11.5871 52.0212C11.205 52.4049 10.5824 52.4049 10.1984 52.0212L7.36162 49.1835C6.97909 48.8004 6.97909 48.1776 7.36162 47.7945L8.70691 46.4492C9.59678 45.5591 9.81878 44.2062 9.25856 43.0816C8.93748 42.4378 8.65927 41.7664 8.43156 41.0868C8.0338 39.8979 6.92098 39.0992 5.66287 39.0992H3.76117C3.22001 39.0992 2.77936 38.6584 2.77936 38.1171V34.1038C2.77936 33.5625 3.22001 33.1217 3.76117 33.1217H5.66287C6.92098 33.1217 8.0338 32.323 8.43156 31.1345C8.65927 30.4545 8.93747 29.7831 9.25856 29.1393C9.81878 28.0147 9.59678 26.6619 8.70691 25.7722L7.36162 24.4265C6.97909 24.0433 6.97909 23.4205 7.36162 23.0374L10.1984 20.1996C10.5819 19.8165 11.2045 19.8165 11.5871 20.1996L12.9319 21.5454C13.8213 22.4355 15.1742 22.6576 16.2984 22.0972C16.942 21.776 17.6132 21.4977 18.2925 21.2699C19.4811 20.872 20.2795 19.7589 20.2795 18.5004V16.598C20.2795 16.0567 20.7202 15.6159 21.2613 15.6159H25.2734C25.8145 15.6159 26.2552 16.0567 26.2552 16.598V18.5004C26.2552 19.7589 27.0536 20.872 28.2417 21.2699C28.9214 21.4977 29.5927 21.776 30.2362 22.0972C31.361 22.6581 32.7134 22.4365 33.6023 21.5454L34.9476 20.1996C35.3311 19.817 35.9537 19.817 36.3362 20.1996L39.1731 23.0374C39.5556 23.4205 39.5556 24.0433 39.1731 24.4265L37.8278 25.7717C36.9379 26.6618 36.7159 28.0147 37.2761 29.1393C37.5972 29.7831 37.8754 30.4545 38.1031 31.1341C38.5009 32.323 39.6137 33.1217 40.8718 33.1217H42.7735C43.3147 33.1217 43.7553 33.5625 43.7553 34.1038L43.7553 38.1171Z" fill="#797CD0"/>
<path d="M23.4174 23.9609C16.4237 23.9609 10.7344 29.6521 10.7344 36.648C10.7344 43.6439 16.4237 49.3351 23.4174 49.3351C30.4111 49.3351 36.1004 43.6439 36.1004 36.648C36.1004 29.6521 30.4111 23.9609 23.4174 23.9609ZM23.4174 47.3833C17.4999 47.3833 12.6856 42.5675 12.6856 36.648C12.6856 30.7286 17.4999 25.9128 23.4174 25.9128C29.3349 25.9128 34.1492 30.7286 34.1492 36.648C34.1492 42.5675 29.3349 47.3833 23.4174 47.3833Z" fill="#797CD0"/>
<path d="M56.8845 13.5272H55.4148C55.1871 13.5272 54.9861 13.3842 54.9151 13.1717C54.7136 12.5703 54.4678 11.9771 54.1844 11.4081C54.0838 11.206 54.1243 10.9625 54.2854 10.8015L55.3248 9.76119C55.795 9.29133 56.0537 8.66613 56.0537 8.00138C56.0537 7.33662 55.795 6.71141 55.3248 6.24156L53.133 4.04906C52.1936 3.10839 50.5539 3.10839 49.6145 4.04906L48.5746 5.08884C48.4135 5.24991 48.1692 5.28993 47.9681 5.18987C47.3993 4.90633 46.8063 4.66045 46.2046 4.45888C45.9926 4.38788 45.8497 4.18678 45.8497 3.959V2.4889C45.8497 1.1165 44.7335 0 43.3616 0H40.2613C38.8894 0 37.7732 1.1165 37.7732 2.4889V3.959C37.7732 4.18678 37.6303 4.38787 37.4178 4.45888C36.8167 4.66045 36.2236 4.90634 35.6548 5.18987C35.4538 5.28994 35.2094 5.24991 35.0483 5.08884L34.0084 4.04906C33.0385 3.07884 31.4598 3.07884 30.4899 4.04906L28.2981 6.24156C27.3277 7.21177 27.3277 8.79098 28.2981 9.7612L29.3375 10.8015C29.4986 10.9625 29.5391 11.206 29.4385 11.4076C29.2509 11.7841 29.0803 12.1701 28.9269 12.5646C28.7316 13.0669 28.9808 13.6325 29.4828 13.8279C29.9859 14.0228 30.5509 13.774 30.7457 13.2718C30.8772 12.9335 31.0239 12.6018 31.1849 12.2782C31.6599 11.3247 31.4722 10.1767 30.7171 9.42143L29.6777 8.38117C29.4686 8.1715 29.4686 7.83125 29.6777 7.62158L31.8695 5.42908C32.0791 5.21941 32.4192 5.22036 32.6288 5.42908L33.6688 6.46886C34.4233 7.22417 35.5724 7.41144 36.5246 6.93681C37.0129 6.69331 37.5222 6.48268 38.0376 6.3097C39.0466 5.97184 39.7245 5.02689 39.7245 3.95899V2.48889C39.7245 2.19297 39.9655 1.95185 40.2613 1.95185H43.3616C43.6574 1.95185 43.8985 2.19297 43.8985 2.48889V3.95899C43.8985 5.02689 44.5763 5.97184 45.5848 6.3097C46.1007 6.48268 46.61 6.69331 47.0983 6.93681C48.0501 7.41144 49.1991 7.22416 49.9542 6.46886L50.9941 5.42908C51.2037 5.21941 51.5438 5.21941 51.7534 5.42908L53.9452 7.62158C54.1544 7.83125 54.1544 8.1715 53.9452 8.38117L52.9058 9.42143C52.1507 10.1767 51.963 11.3247 52.438 12.2782C52.6814 12.7667 52.892 13.2761 53.0649 13.7926C53.4036 14.8014 54.3478 15.4791 55.4149 15.4791H56.8845C57.1803 15.4791 57.4213 15.7202 57.4213 16.0161V19.1174C57.4213 19.4133 57.1803 19.6544 56.8845 19.6544H55.4149C54.3478 19.6544 53.4036 20.332 53.0649 21.3413C52.892 21.8574 52.6814 22.3668 52.438 22.8552C51.963 23.8088 52.1507 24.9567 52.9058 25.712L53.9452 26.7523C54.1544 26.962 54.1544 27.3022 53.9452 27.5119L51.7534 29.7044C51.5438 29.9141 51.2037 29.9131 50.9941 29.7044L49.9542 28.6646C49.1991 27.9084 48.0515 27.722 47.0978 28.1967C46.7748 28.3577 46.4442 28.5045 46.1055 28.636C45.6029 28.8309 45.3538 29.3966 45.5491 29.8988C45.7444 30.4011 46.3099 30.6508 46.8115 30.4554C47.2064 30.302 47.5923 30.1314 47.9682 29.9436C48.1692 29.8431 48.4136 29.8836 48.5746 30.0446L49.6145 31.0844C50.0995 31.5695 50.7369 31.8121 51.3738 31.8121C52.0107 31.8121 52.6481 31.5695 53.133 31.0844L55.3248 28.8919C56.2952 27.9217 56.2952 26.3425 55.3248 25.3723L54.2854 24.332C54.1244 24.171 54.0839 23.9275 54.1844 23.7254C54.4678 23.1564 54.7136 22.5631 54.9151 21.9622C54.9861 21.7492 55.1871 21.6063 55.4149 21.6063H56.8845C58.2564 21.6063 59.3726 20.4898 59.3726 19.1174V16.0161C59.3726 14.6437 58.2564 13.5272 56.8845 13.5272Z" fill="#797CD0"/>
<path d="M43.4793 25.4959C42.952 25.6065 42.6137 26.1235 42.7238 26.651C42.8318 27.1825 43.3644 27.5174 43.8785 27.4068C48.5051 26.4389 51.8631 22.2998 51.8631 17.5655C51.8631 12.0221 47.3542 7.51172 41.812 7.51172C37.0787 7.51172 32.9414 10.8708 31.9739 15.4983C31.8638 16.0259 32.2021 16.5429 32.7294 16.6534C33.2568 16.7611 33.7741 16.4256 33.8841 15.8977C34.6635 12.1693 37.9977 9.46358 41.812 9.46358C46.278 9.46358 49.9118 13.0981 49.9118 17.5655C49.9118 21.3811 47.2065 24.7163 43.4793 25.4959Z" fill="#797CD0"/>
<path d="M27.3723 31.3799L21.2065 38.0461L17.9488 35.5953C17.4421 35.2141 16.6212 35.2141 16.1144 35.5953C15.6077 35.9765 15.6077 36.5941 16.1144 36.9753L20.4686 40.251C20.7398 40.4556 21.1206 40.5587 21.5004 40.5331C21.8837 40.5073 22.2314 40.3558 22.4506 40.1185L29.5019 32.495C29.911 32.0523 29.766 31.4443 29.1782 31.1364C28.5885 30.8276 27.7808 30.9372 27.3723 31.3799Z" fill="#797CD0"/>
</svg>
