<svg width="40" height="59" viewBox="0 0 40 59" fill="none" xmlns="http://www.w3.org/2000/svg">
<path d="M24.5519 47.6053C24.3909 47.6053 24.2262 47.5946 24.0627 47.5731C23.0893 47.4468 22.2211 46.9536 21.6206 46.184C21.0212 45.4144 20.7609 44.4614 20.8905 43.5L22.0468 34.8546L18.389 31.9168C17.9204 31.9501 17.5051 32.2527 17.3465 32.7066L16.0497 36.4092C15.8596 36.9513 15.5364 37.4481 15.1162 37.846L8.1905 44.3804C6.71939 45.7742 4.13435 45.6408 2.81217 44.0956C1.56506 42.6363 1.73578 40.4121 3.19841 39.0313L9.325 33.2499L12.6087 20.7374L10.5915 21.1746L8.6845 23.9218C7.99435 24.9142 6.85499 25.5051 5.63452 25.5051C4.64894 25.5051 3.71784 25.1227 3.01195 24.4281C1.76726 23.1999 1.61954 21.2235 2.65961 19.7272L5.32213 15.8899C5.85367 15.1251 6.654 14.5926 7.5742 14.3924L14.9164 12.5411C15.0835 12.4994 15.2579 12.4935 15.4274 12.5197L25.0967 14.0994C25.2529 14.1244 25.4031 14.1792 25.5387 14.2602L28.2702 15.8983L34.1898 13.026C35.1281 12.5721 36.219 12.5292 37.184 12.9069C38.1503 13.2833 38.9143 14.0517 39.2823 15.0155C39.9374 16.7358 39.0814 18.7491 37.333 19.5973L29.7704 23.2666C28.7 23.786 27.3767 23.7503 26.339 23.1808L24.9042 22.3934L23.9852 27.0383L28.3053 30.5074C29.303 31.3092 29.7982 32.5375 29.6311 33.7943L28.206 44.4483C27.9675 46.2472 26.3959 47.6053 24.5519 47.6053ZM19.7354 29.851L24.1511 33.3952C24.4829 33.6621 24.6524 34.0802 24.5955 34.4996L23.3484 43.8193C23.2612 44.4697 23.7285 45.069 24.3909 45.1547C25.0955 45.2417 25.6622 44.7723 25.7481 44.1302L27.1732 33.4762C27.2277 33.064 27.0643 32.6602 26.7374 32.3969L21.8434 28.4667C21.4886 28.1832 21.3227 27.7305 21.4099 27.2885L22.7975 20.2752C22.8737 19.8916 23.1316 19.5675 23.4912 19.4019C23.8533 19.2375 24.271 19.2507 24.6185 19.4436L27.5486 21.0507C27.8925 21.2378 28.3211 21.2473 28.6758 21.0781L36.236 17.4101C36.845 17.1146 37.1695 16.4248 36.96 15.8721C36.8365 15.548 36.5908 15.3002 36.2699 15.1751C35.9466 15.0477 35.5967 15.062 35.2843 15.2145L28.7557 18.3822C28.3768 18.5692 27.9239 18.5478 27.5619 18.331L24.4538 16.4677L15.2785 14.969L8.14933 16.7656C7.80668 16.8406 7.54514 17.0145 7.37079 17.2659L4.70705 21.1043C4.34382 21.625 4.37046 22.3135 4.76638 22.7043C5.06908 23.0021 5.40568 23.0653 5.63452 23.0653C6.0365 23.0653 6.41063 22.8711 6.63705 22.5458L8.82011 19.3996C8.99809 19.1422 9.26931 18.9624 9.57806 18.8956L14.0471 17.9271C14.4709 17.8366 14.908 17.9676 15.2058 18.2714C15.5049 18.5764 15.6211 19.0124 15.5133 19.4234L11.6376 34.1958C11.5807 34.415 11.462 34.6139 11.2962 34.7712L4.91531 40.7921C4.40072 41.2782 4.3087 42.0549 4.70948 42.5243C5.14657 43.0366 5.98565 43.0806 6.47238 42.6208L13.3981 36.0864C13.5361 35.9554 13.6427 35.7921 13.7056 35.6134L15.0024 31.912C15.586 30.2382 17.3077 29.2303 19.0755 29.5234C19.3249 29.5639 19.555 29.6783 19.7354 29.851Z" fill="#797CD0"/>
<path d="M21.796 11.4424C18.5996 11.4424 16 8.88462 16 5.74072C16 2.59683 18.5996 0.0390625 21.796 0.0390625C24.9913 0.0390625 27.5909 2.59683 27.5909 5.74072C27.5909 8.88462 24.9913 11.4424 21.796 11.4424ZM21.796 2.47889C19.9678 2.47889 18.4797 3.94183 18.4797 5.74072C18.4797 7.53962 19.9678 9.00256 21.796 9.00256C23.6243 9.00256 25.1112 7.53962 25.1112 5.74072C25.1112 3.94183 23.6243 2.47889 21.796 2.47889Z" fill="#797CD0"/>
<path d="M29.0832 58.5938H20.0289C19.3436 58.5938 18.7891 58.0482 18.7891 57.3739V46.384C18.7891 45.7097 19.3436 45.1641 20.0289 45.1641H29.0832C29.7685 45.1641 30.323 45.7097 30.323 46.384V57.3739C30.323 58.0482 29.7685 58.5938 29.0832 58.5938ZM21.2688 56.154H27.8433V47.6039H21.2688V56.154Z" fill="#797CD0"/>
<path d="M20.0285 58.5954H10.9742C10.2889 58.5954 9.73438 58.0497 9.73438 57.3754V50.0012C9.73438 49.3269 10.2889 48.7812 10.9742 48.7812H20.0285C20.7138 48.7812 21.2683 49.3269 21.2683 50.0012V57.3754C21.2683 58.0497 20.7138 58.5954 20.0285 58.5954ZM12.2141 56.1555H18.7887V51.2211H12.2141V56.1555Z" fill="#797CD0"/>
<path d="M10.9742 58.5954L1.91954 58.5956C1.23423 58.5956 0.679688 58.0499 0.679688 57.3757V52.4114C0.679688 51.7371 1.23423 51.1915 1.91954 51.1915H10.9738C11.6591 51.1915 12.2137 51.7371 12.2137 52.4114V57.3757C12.2137 58.0499 11.6595 58.5954 10.9742 58.5954ZM3.15938 56.1557H9.73397V53.6313H3.15938V56.1557Z" fill="#797CD0"/>
</svg>
